<?xml version="1.0" encoding="UTF-8" standalone="no"?>
<!-- Created with Inkscape (http://www.inkscape.org/) -->

<svg
   width="150"
   height="150"
   viewBox="0 0 39.687499 39.6875"
   version="1.1"
   id="svg1"
   xml:space="preserve"
   xmlns:inkscape="http://www.inkscape.org/namespaces/inkscape"
   xmlns:sodipodi="http://sodipodi.sourceforge.net/DTD/sodipodi-0.dtd"
   xmlns="http://www.w3.org/2000/svg"
   xmlns:svg="http://www.w3.org/2000/svg"><sodipodi:namedview
     id="namedview1"
     pagecolor="#ffffff"
     bordercolor="#000000"
     borderopacity="0.25"
     inkscape:showpageshadow="2"
     inkscape:pageopacity="0.0"
     inkscape:pagecheckerboard="0"
     inkscape:deskcolor="#d1d1d1"
     inkscape:document-units="px" /><defs
     id="defs1" /><g
     inkscape:label="Layer 1"
     inkscape:groupmode="layer"
     id="layer1"><g
       style="clip-rule:evenodd;fill-rule:evenodd;stroke-linejoin:round;stroke-miterlimit:2"
       id="g5655"
       transform="matrix(0.12709996,0,0,0.12709996,-81.833862,-43.706176)"><g
         id="g5640"
         transform="translate(-5000.02,-2150)"><path
           id="path5638"
           style="fill:#ffffff"
           d="m 5761.2,2660.02 c 3.03,3.98 2.65,9.58 -0.88,13.11 -5.42,5.44 -13.12,13.14 -18.76,18.78 -1.99,1.99 -4.73,3.05 -7.54,2.92 -2.81,-0.13 -5.44,-1.44 -7.24,-3.61 -38.05,-45.87 -35.59,-114.04 7.39,-157.03 42.99,-42.98 111.15,-45.44 157.02,-7.37 2.16,1.79 3.47,4.42 3.6,7.22 0.13,2.81 -0.93,5.54 -2.91,7.53 -5.63,5.65 -13.33,13.35 -18.76,18.78 -3.54,3.54 -9.15,3.92 -13.13,0.89 -27.62,-21.23 -67.37,-19.19 -92.66,6.11 -25.3,25.3 -27.34,65.04 -6.13,92.67 z" /></g><g
         id="g5653"
         transform="matrix(-0.82552,0.82552,-0.82552,-0.82552,7800.18,-2025.86)"><path
           id="path5642"
           style="fill:#ffffff"
           d="m 5891.05,2700 c 2.42,0 4.71,-1.02 6.34,-2.8 1.62,-1.78 2.42,-4.17 2.19,-6.56 -4.73,-50.84 -47.51,-90.64 -99.58,-90.64 -52.07,0 -94.85,39.8 -99.57,90.64 -0.22,2.39 0.57,4.77 2.19,6.55 1.62,1.78 3.92,2.8 6.33,2.8 33.17,0.01 148.93,0.01 182.1,0.01 z" /><clipPath
           id="_clip1"><path
             id="path5644"
             d="m 5891.05,2700 c 2.42,0 4.71,-1.02 6.34,-2.8 1.62,-1.78 2.42,-4.17 2.19,-6.56 -4.73,-50.84 -47.51,-90.64 -99.58,-90.64 -52.07,0 -94.85,39.8 -99.57,90.64 -0.22,2.39 0.57,4.77 2.19,6.55 1.62,1.78 3.92,2.8 6.33,2.8 33.17,0.01 148.93,0.01 182.1,0.01 z" /></clipPath><g
           id="g5651"
           clip-path="url(#_clip1)"><g
             id="g5649"
             transform="matrix(-0.605679,-0.605679,0.605679,-0.605679,7011.37,8494.24)"><path
               id="path5647"
               style="fill:#86afdc"
               d="m 5801.84,3898.52 c -6.25,-26.11 0.81,-54.76 21.18,-75.13 20.46,-20.46 49.26,-27.5 75.45,-21.11 -3.82,23.27 -14.7,45.59 -32.64,63.53 -18.06,18.05 -40.56,28.96 -63.99,32.71 z" /></g></g></g></g></g></svg>
