<?xml version="1.0" encoding="UTF-8" standalone="no"?>
<!-- Created with Inkscape (http://www.inkscape.org/) -->

<svg
   width="493.07224"
   height="111.34229"
   viewBox="0 0 130.45869 29.459312"
   version="1.1"
   id="svg1"
   xml:space="preserve"
   xmlns:xlink="http://www.w3.org/1999/xlink"
   xmlns="http://www.w3.org/2000/svg"
   xmlns:svg="http://www.w3.org/2000/svg"><defs
     id="defs1"><linearGradient
       id="linearGradient4390"><stop
         style="stop-color:#ff7654;stop-opacity:1"
         offset="0"
         id="stop4392" /><stop
         style="stop-color:#ffae54;stop-opacity:1"
         offset="1"
         id="stop4394" /></linearGradient><linearGradient
       xlink:href="#linearGradient4390"
       id="linearGradient4369"
       x1="552.86676"
       y1="897.159"
       x2="1076.7231"
       y2="897.159"
       gradientUnits="userSpaceOnUse"
       gradientTransform="translate(-100.48048,-78.948945)" /><linearGradient
       xlink:href="#linearGradient4390"
       id="linearGradient4396"
       x1="439.28632"
       y1="818.21002"
       x2="958.18774"
       y2="818.21002"
       gradientUnits="userSpaceOnUse" /></defs><g
     id="layer1"
     transform="translate(-104.10411,-82.393951)"><g
       id="g4672"
       transform="matrix(0.14511519,0,0,0.14511519,40.356726,-21.611116)"><g
         id="g4636"><path
           style="font-size:221.197px;line-height:1.25;font-family:'Comic Sans MS';-inkscape-font-specification:'Comic Sans MS';letter-spacing:0px;word-spacing:0px;fill:none;stroke:url(#linearGradient4396);stroke-width:26.2"
           d="m 452.3899,872.59134 q -0.108,-4.53626 3.02418,-7.34443 3.24019,-2.91617 7.88447,-2.91617 5.29231,0 9.28854,6.04836 5.50833,8.20848 9.82858,11.12465 9.18054,6.04836 26.67757,6.04836 16.74098,0 31.10583,-7.23643 18.36108,-9.28855 18.36108,-25.81352 0,-13.6088 -15.44491,-21.49326 -13.06877,-6.8044 -32.2939,-7.34443 -17.065,-0.64804 -29.05371,-7.45244 -15.3369,-8.74852 -15.3369,-25.05748 0,-19.22513 21.81728,-35.10206 20.84523,-15.01288 43.09454,-15.01288 10.47661,0 23.65339,3.56421 17.49703,4.64427 17.49703,11.8807 0,9.50455 -9.72058,9.50455 -4.32025,0 -15.12088,-2.26813 -10.80064,-2.37614 -16.74099,-2.26813 -16.84899,0.21601 -28.62168,8.31649 -12.09671,8.31649 -12.09671,20.19718 0,8.96453 15.98494,12.63675 5.94035,1.40408 23.00535,2.59215 24.73345,1.83611 38.66627,15.55291 12.74475,12.52874 12.74475,30.5658 0,25.70551 -23.76139,41.04242 -20.62922,13.28478 -47.84682,13.28478 -19.76516,0 -36.18213,-7.56045 -20.08918,-9.28854 -20.4132,-25.4895 z M 738.39072,763.0729 q -7.99247,0 -24.62545,-1.29607 -16.20095,-1.18807 -24.62544,-1.08007 h -7.66846 q 0.32402,14.90488 2.91618,48.38685 2.37614,31.21383 2.37614,48.49485 0,3.78022 0.75604,11.44867 0.75604,7.66845 0.75604,11.55668 0,7.34443 -2.37614,12.63675 -3.02417,7.12842 -9.39655,7.12842 -4.32025,0 -7.77645,-3.02418 -3.45621,-3.02418 -3.45621,-7.77646 0,-1.6201 0.54003,-4.86029 0.54004,-3.24019 0.54004,-4.86028 0,-5.29231 -0.75605,-15.87694 -0.64804,-10.58462 -0.64804,-15.98493 0,-15.44491 -2.48414,-43.41856 -2.59216,-30.24178 -2.91617,-43.41855 l -9.82858,0.10801 q -23.65339,0 -37.15419,-3.45621 -8.74851,-2.26813 -8.74851,-10.69263 0,-4.42826 2.80816,-7.77645 3.24019,-3.78023 8.31649,-3.45621 3.78022,0.21602 17.28102,1.94412 10.80063,1.29607 17.49703,1.29607 6.48038,0 19.65715,-0.21601 13.17678,-0.32402 19.65716,-0.32402 8.31649,0 24.62545,1.18807 16.41696,1.18807 24.73345,1.18807 4.64427,0 7.77646,3.24019 3.13218,3.13219 3.13218,7.88447 0,4.64427 -3.13218,7.88446 -3.13219,3.13218 -7.77646,3.13218 z m 38.8823,-0.32402 q -5.18431,0 -8.96453,-3.67221 -3.78022,-3.67222 -3.78022,-8.85652 0,-5.18431 3.78022,-8.85652 3.78022,-3.67222 8.96453,-3.67222 5.1843,0 8.85652,3.67222 3.78022,3.67221 3.78022,8.85652 0,5.1843 -3.78022,8.85652 -3.67222,3.67221 -8.85652,3.67221 z m 4.86028,87.70116 q 0,6.48038 0.32402,19.44114 0.43203,12.85276 0.43203,19.33314 0,4.75228 -2.91618,7.77646 -2.91617,3.02418 -7.66845,3.02418 -4.64427,0 -7.66845,-3.02418 -2.91617,-3.02418 -2.91617,-7.77646 0,-6.48038 -0.43202,-19.33314 -0.32402,-12.96076 -0.32402,-19.44114 0,-10.1526 1.08006,-25.27348 1.08006,-15.2289 1.08006,-25.3815 0,-4.86028 2.91618,-7.88446 3.02417,-3.02418 7.66845,-3.02418 4.64427,0 7.56044,3.02418 3.02418,3.02418 3.02418,7.88446 0,10.1526 -1.08006,25.3815 -1.08007,15.12088 -1.08007,25.27348 z m 117.18688,44.71463 q -24.30143,9.50456 -62.10365,9.50456 -4.64427,0 -8.85652,-4.42826 -4.10424,-4.32026 -4.10424,-8.96453 v -31.42985 q 0,-15.4449 1.94411,-44.06659 2.16013,-30.88981 2.37614,-44.71463 -0.108,-9.93658 1.18807,-29.59374 0.75605,-5.40031 3.56421,-7.12842 14.68887,-4.53626 33.37397,-4.53626 19.00911,0 36.50614,12.96076 20.19719,14.90488 20.19719,36.83017 0,27.75763 -21.60127,43.74257 16.20095,6.9124 24.19342,15.3369 8.10048,8.42449 8.10048,18.36108 0,13.06877 -14.14883,25.27348 -9.82858,8.64051 -20.62922,12.85276 z M 866.70227,751.84024 q -11.7727,0 -16.52498,0.75605 l -0.21601,18.90111 -2.16013,41.79846 q 15.33691,1.29607 16.41697,1.18807 16.30896,-1.29608 26.67757,-10.1526 11.12465,-9.61257 11.12465,-24.73345 0,-10.26061 -11.34066,-19.00912 -11.34067,-8.74852 -23.97741,-8.74852 z m 12.09671,86.51309 -11.44868,-1.83611 q -1.40408,0 -4.32025,0.21601 -2.80817,0.10801 -4.32025,0.10801 -5.83235,0 -12.42074,-0.97206 -0.64803,13.6088 -0.64803,24.30143 v 22.35732 q 28.29766,-0.97206 46.11871,-7.99247 7.56044,-2.91617 14.47285,-9.07254 6.58839,-5.61633 6.58839,-8.42449 0,-5.0763 -13.82482,-11.44867 -10.36861,-4.86029 -20.19718,-7.23643 z m 163.62962,68.26001 q -2.0521,0 -7.4525,-4.75228 -4.8602,-4.42826 -7.2364,-7.88446 -10.3686,5.61633 -18.2531,8.4245 -7.8844,2.91617 -13.17672,2.91617 -25.27349,0 -36.83017,-14.25684 -10.90864,-13.39279 -10.90864,-41.04241 0,-26.13754 17.92905,-44.71463 18.03706,-18.5771 42.98648,-18.5771 9.3966,0 21.0613,4.86029 14.6889,6.04836 14.6889,14.58086 0,2.91617 -2.1602,5.1843 -1.08,4.10424 -1.7281,13.5008 -0.54,9.39655 -0.648,24.08541 -0.108,13.39279 1.8361,21.16925 1.0801,4.75228 6.8044,19.00911 0.756,1.94412 2.4841,5.72434 l 0.6481,1.83611 q 0,4.32025 -3.0242,7.12842 -3.0242,2.80816 -7.0204,2.80816 z m -22.4653,-75.06441 q 0,-4.64427 0.54,-10.04459 0.648,-5.50832 1.8361,-11.66469 -3.9962,-2.05212 -6.9124,-3.02417 -2.8082,-0.97206 -4.5363,-0.97206 -16.74095,0 -28.94567,13.7168 -12.09671,13.6088 -12.09671,31.42985 0,17.71304 6.26437,26.56957 6.26437,8.85652 18.7931,8.85652 10.36861,0 17.60501,-3.78023 3.8883,-2.05212 10.9087,-8.20848 -3.4562,-28.62168 -3.4562,-42.87852 z m 157.9053,69.12406 q -4.1043,0 -7.6685,-3.4562 -35.7501,-35.31808 -79.4927,-47.52279 l 0.8641,21.16924 0.54,21.27725 q 0,4.75228 -3.1322,7.88447 -3.0241,3.24019 -7.6684,3.24019 -4.6443,0 -7.7765,-3.24019 -3.0241,-3.13219 -3.0241,-7.88447 0,-8.5325 -0.8641,-25.38149 -0.756,-16.957 -0.756,-25.4895 0,-9.93658 2.1601,-29.59374 2.1601,-19.65715 2.1601,-29.48573 0,-5.50833 -1.08,-16.30896 -0.9721,-10.80064 -0.9721,-16.30896 0,-6.15636 3.4562,-10.80064 4.1042,-5.72433 11.3407,-5.1843 l 26.0295,2.05212 q 14.7969,1.83611 24.9495,7.23643 43.7425,23.22136 43.7425,56.70333 0,16.41697 -14.9048,29.05371 -11.9887,10.1526 -29.9178,15.44491 33.59,18.03706 50.223,38.01823 2.8081,3.45621 2.8081,7.34443 0,4.53627 -3.3482,7.88447 -3.2402,3.34819 -7.6684,3.34819 z m -68.8001,-142.78439 -15.9849,-1.29608 1.08,13.06877 q 0.7561,7.99247 0.7561,13.06877 0,8.64051 -1.4041,21.49326 l -2.2681,21.49327 q 1.5121,0 4.6442,0.108 3.2402,0.10801 4.8603,0.10801 27.5417,0 41.2585,-7.34443 6.0483,-3.3482 11.2326,-8.74852 5.7244,-6.04835 5.7244,-10.2606 0,-15.01288 -17.065,-27.97364 -15.661,-11.8807 -32.834,-13.71681 z m 205.4281,20.4132 q -6.9124,0 -10.3686,-8.10048 -3.0242,-6.9124 -5.6164,-8.42449 -2.2681,-1.18807 -11.2326,-1.18807 -15.6609,0 -34.7781,23.97741 -25.9215,32.18589 -25.9215,61.02359 0,13.93281 8.9645,23.97741 9.1806,10.3686 22.1413,10.3686 11.1247,0 22.3574,-5.72433 6.2643,-3.24019 19.2251,-12.74475 6.1563,-4.53627 9.2885,-4.53627 4.6443,0 7.7765,3.56421 3.1322,3.4562 3.1322,7.77646 0,4.86028 -4.1043,8.5325 -28.5136,25.27349 -57.6754,25.27349 -22.3573,0 -37.8022,-17.17301 -14.9049,-16.63298 -14.9049,-39.31431 0,-36.61416 30.6738,-75.06442 25.5975,-32.07788 51.6271,-32.07788 5.2923,0 9.5045,0.54003 4.2123,0.43202 7.4525,1.51209 3.7802,-5.50833 9.8286,-5.50833 7.4524,0 9.3965,9.82858 1.7281,8.74851 1.7281,21.49326 0,4.42826 -2.3761,7.77646 -2.9162,4.21225 -8.3165,4.21225 z"
           id="text4375"
           aria-label="STiBaRC" /><path
           style="font-size:221.197px;line-height:1.25;font-family:'Comic Sans MS';-inkscape-font-specification:'Comic Sans MS';letter-spacing:0px;word-spacing:0px;fill:none;stroke:#ffffff;stroke-width:16.3"
           d="m 452.3899,872.59134 q -0.108,-4.53626 3.02418,-7.34443 3.24019,-2.91617 7.88447,-2.91617 5.29231,0 9.28854,6.04836 5.50833,8.20848 9.82858,11.12465 9.18054,6.04836 26.67757,6.04836 16.74098,0 31.10583,-7.23643 18.36108,-9.28855 18.36108,-25.81352 0,-13.6088 -15.44491,-21.49326 -13.06877,-6.8044 -32.2939,-7.34443 -17.065,-0.64804 -29.05371,-7.45244 -15.3369,-8.74852 -15.3369,-25.05748 0,-19.22513 21.81728,-35.10206 20.84523,-15.01288 43.09454,-15.01288 10.47661,0 23.65339,3.56421 17.49703,4.64427 17.49703,11.8807 0,9.50455 -9.72058,9.50455 -4.32025,0 -15.12088,-2.26813 -10.80064,-2.37614 -16.74099,-2.26813 -16.84899,0.21601 -28.62168,8.31649 -12.09671,8.31649 -12.09671,20.19718 0,8.96453 15.98494,12.63675 5.94035,1.40408 23.00535,2.59215 24.73345,1.83611 38.66627,15.55291 12.74475,12.52874 12.74475,30.5658 0,25.70551 -23.76139,41.04242 -20.62922,13.28478 -47.84682,13.28478 -19.76516,0 -36.18213,-7.56045 -20.08918,-9.28854 -20.4132,-25.4895 z M 738.39072,763.0729 q -7.99247,0 -24.62545,-1.29607 -16.20095,-1.18807 -24.62544,-1.08007 h -7.66846 q 0.32402,14.90488 2.91618,48.38685 2.37614,31.21383 2.37614,48.49485 0,3.78022 0.75604,11.44867 0.75604,7.66845 0.75604,11.55668 0,7.34443 -2.37614,12.63675 -3.02417,7.12842 -9.39655,7.12842 -4.32025,0 -7.77645,-3.02418 -3.45621,-3.02418 -3.45621,-7.77646 0,-1.6201 0.54003,-4.86029 0.54004,-3.24019 0.54004,-4.86028 0,-5.29231 -0.75605,-15.87694 -0.64804,-10.58462 -0.64804,-15.98493 0,-15.44491 -2.48414,-43.41856 -2.59216,-30.24178 -2.91617,-43.41855 l -9.82858,0.10801 q -23.65339,0 -37.15419,-3.45621 -8.74851,-2.26813 -8.74851,-10.69263 0,-4.42826 2.80816,-7.77645 3.24019,-3.78023 8.31649,-3.45621 3.78022,0.21602 17.28102,1.94412 10.80063,1.29607 17.49703,1.29607 6.48038,0 19.65715,-0.21601 13.17678,-0.32402 19.65716,-0.32402 8.31649,0 24.62545,1.18807 16.41696,1.18807 24.73345,1.18807 4.64427,0 7.77646,3.24019 3.13218,3.13219 3.13218,7.88447 0,4.64427 -3.13218,7.88446 -3.13219,3.13218 -7.77646,3.13218 z m 38.8823,-0.32402 q -5.18431,0 -8.96453,-3.67221 -3.78022,-3.67222 -3.78022,-8.85652 0,-5.18431 3.78022,-8.85652 3.78022,-3.67222 8.96453,-3.67222 5.1843,0 8.85652,3.67222 3.78022,3.67221 3.78022,8.85652 0,5.1843 -3.78022,8.85652 -3.67222,3.67221 -8.85652,3.67221 z m 4.86028,87.70116 q 0,6.48038 0.32402,19.44114 0.43203,12.85276 0.43203,19.33314 0,4.75228 -2.91618,7.77646 -2.91617,3.02418 -7.66845,3.02418 -4.64427,0 -7.66845,-3.02418 -2.91617,-3.02418 -2.91617,-7.77646 0,-6.48038 -0.43202,-19.33314 -0.32402,-12.96076 -0.32402,-19.44114 0,-10.1526 1.08006,-25.27348 1.08006,-15.2289 1.08006,-25.3815 0,-4.86028 2.91618,-7.88446 3.02417,-3.02418 7.66845,-3.02418 4.64427,0 7.56044,3.02418 3.02418,3.02418 3.02418,7.88446 0,10.1526 -1.08006,25.3815 -1.08007,15.12088 -1.08007,25.27348 z m 117.18688,44.71463 q -24.30143,9.50456 -62.10365,9.50456 -4.64427,0 -8.85652,-4.42826 -4.10424,-4.32026 -4.10424,-8.96453 v -31.42985 q 0,-15.4449 1.94411,-44.06659 2.16013,-30.88981 2.37614,-44.71463 -0.108,-9.93658 1.18807,-29.59374 0.75605,-5.40031 3.56421,-7.12842 14.68887,-4.53626 33.37397,-4.53626 19.00911,0 36.50614,12.96076 20.19719,14.90488 20.19719,36.83017 0,27.75763 -21.60127,43.74257 16.20095,6.9124 24.19342,15.3369 8.10048,8.42449 8.10048,18.36108 0,13.06877 -14.14883,25.27348 -9.82858,8.64051 -20.62922,12.85276 z M 866.70227,751.84024 q -11.7727,0 -16.52498,0.75605 l -0.21601,18.90111 -2.16013,41.79846 q 15.33691,1.29607 16.41697,1.18807 16.30896,-1.29608 26.67757,-10.1526 11.12465,-9.61257 11.12465,-24.73345 0,-10.26061 -11.34066,-19.00912 -11.34067,-8.74852 -23.97741,-8.74852 z m 12.09671,86.51309 -11.44868,-1.83611 q -1.40408,0 -4.32025,0.21601 -2.80817,0.10801 -4.32025,0.10801 -5.83235,0 -12.42074,-0.97206 -0.64803,13.6088 -0.64803,24.30143 v 22.35732 q 28.29766,-0.97206 46.11871,-7.99247 7.56044,-2.91617 14.47285,-9.07254 6.58839,-5.61633 6.58839,-8.42449 0,-5.0763 -13.82482,-11.44867 -10.36861,-4.86029 -20.19718,-7.23643 z m 163.62962,68.26001 q -2.0521,0 -7.4525,-4.75228 -4.8602,-4.42826 -7.2364,-7.88446 -10.3686,5.61633 -18.2531,8.4245 -7.8844,2.91617 -13.17672,2.91617 -25.27349,0 -36.83017,-14.25684 -10.90864,-13.39279 -10.90864,-41.04241 0,-26.13754 17.92905,-44.71463 18.03706,-18.5771 42.98648,-18.5771 9.3966,0 21.0613,4.86029 14.6889,6.04836 14.6889,14.58086 0,2.91617 -2.1602,5.1843 -1.08,4.10424 -1.7281,13.5008 -0.54,9.39655 -0.648,24.08541 -0.108,13.39279 1.8361,21.16925 1.0801,4.75228 6.8044,19.00911 0.756,1.94412 2.4841,5.72434 l 0.6481,1.83611 q 0,4.32025 -3.0242,7.12842 -3.0242,2.80816 -7.0204,2.80816 z m -22.4653,-75.06441 q 0,-4.64427 0.54,-10.04459 0.648,-5.50832 1.8361,-11.66469 -3.9962,-2.05212 -6.9124,-3.02417 -2.8082,-0.97206 -4.5363,-0.97206 -16.74095,0 -28.94567,13.7168 -12.09671,13.6088 -12.09671,31.42985 0,17.71304 6.26437,26.56957 6.26437,8.85652 18.7931,8.85652 10.36861,0 17.60501,-3.78023 3.8883,-2.05212 10.9087,-8.20848 -3.4562,-28.62168 -3.4562,-42.87852 z m 157.9053,69.12406 q -4.1043,0 -7.6685,-3.4562 -35.7501,-35.31808 -79.4927,-47.52279 l 0.8641,21.16924 0.54,21.27725 q 0,4.75228 -3.1322,7.88447 -3.0241,3.24019 -7.6684,3.24019 -4.6443,0 -7.7765,-3.24019 -3.0241,-3.13219 -3.0241,-7.88447 0,-8.5325 -0.8641,-25.38149 -0.756,-16.957 -0.756,-25.4895 0,-9.93658 2.1601,-29.59374 2.1601,-19.65715 2.1601,-29.48573 0,-5.50833 -1.08,-16.30896 -0.9721,-10.80064 -0.9721,-16.30896 0,-6.15636 3.4562,-10.80064 4.1042,-5.72433 11.3407,-5.1843 l 26.0295,2.05212 q 14.7969,1.83611 24.9495,7.23643 43.7425,23.22136 43.7425,56.70333 0,16.41697 -14.9048,29.05371 -11.9887,10.1526 -29.9178,15.44491 33.59,18.03706 50.223,38.01823 2.8081,3.45621 2.8081,7.34443 0,4.53627 -3.3482,7.88447 -3.2402,3.34819 -7.6684,3.34819 z m -68.8001,-142.78439 -15.9849,-1.29608 1.08,13.06877 q 0.7561,7.99247 0.7561,13.06877 0,8.64051 -1.4041,21.49326 l -2.2681,21.49327 q 1.5121,0 4.6442,0.108 3.2402,0.10801 4.8603,0.10801 27.5417,0 41.2585,-7.34443 6.0483,-3.3482 11.2326,-8.74852 5.7244,-6.04835 5.7244,-10.2606 0,-15.01288 -17.065,-27.97364 -15.661,-11.8807 -32.834,-13.71681 z m 205.4281,20.4132 q -6.9124,0 -10.3686,-8.10048 -3.0242,-6.9124 -5.6164,-8.42449 -2.2681,-1.18807 -11.2326,-1.18807 -15.6609,0 -34.7781,23.97741 -25.9215,32.18589 -25.9215,61.02359 0,13.93281 8.9645,23.97741 9.1806,10.3686 22.1413,10.3686 11.1247,0 22.3574,-5.72433 6.2643,-3.24019 19.2251,-12.74475 6.1563,-4.53627 9.2885,-4.53627 4.6443,0 7.7765,3.56421 3.1322,3.4562 3.1322,7.77646 0,4.86028 -4.1043,8.5325 -28.5136,25.27349 -57.6754,25.27349 -22.3573,0 -37.8022,-17.17301 -14.9049,-16.63298 -14.9049,-39.31431 0,-36.61416 30.6738,-75.06442 25.5975,-32.07788 51.6271,-32.07788 5.2923,0 9.5045,0.54003 4.2123,0.43202 7.4525,1.51209 3.7802,-5.50833 9.8286,-5.50833 7.4524,0 9.3965,9.82858 1.7281,8.74851 1.7281,21.49326 0,4.42826 -2.3761,7.77646 -2.9162,4.21225 -8.3165,4.21225 z"
           id="text4371"
           aria-label="STiBaRC" /><path
           style="font-size:221.197px;line-height:1.25;font-family:'Comic Sans MS';-inkscape-font-specification:'Comic Sans MS';letter-spacing:0px;word-spacing:0px;fill:url(#linearGradient4369)"
           d="m 452.3899,872.59134 q -0.108,-4.53626 3.02418,-7.34443 3.24019,-2.91617 7.88447,-2.91617 5.29231,0 9.28854,6.04836 5.50833,8.20848 9.82858,11.12465 9.18054,6.04836 26.67757,6.04836 16.74098,0 31.10583,-7.23643 18.36108,-9.28855 18.36108,-25.81352 0,-13.6088 -15.44491,-21.49326 -13.06877,-6.8044 -32.2939,-7.34443 -17.065,-0.64804 -29.05371,-7.45244 -15.3369,-8.74852 -15.3369,-25.05748 0,-19.22513 21.81728,-35.10206 20.84523,-15.01288 43.09454,-15.01288 10.47661,0 23.65339,3.56421 17.49703,4.64427 17.49703,11.8807 0,9.50455 -9.72058,9.50455 -4.32025,0 -15.12088,-2.26813 -10.80064,-2.37614 -16.74099,-2.26813 -16.84899,0.21601 -28.62168,8.31649 -12.09671,8.31649 -12.09671,20.19718 0,8.96453 15.98494,12.63675 5.94035,1.40408 23.00535,2.59215 24.73345,1.83611 38.66627,15.55291 12.74475,12.52874 12.74475,30.5658 0,25.70551 -23.76139,41.04242 -20.62922,13.28478 -47.84682,13.28478 -19.76516,0 -36.18213,-7.56045 -20.08918,-9.28854 -20.4132,-25.4895 z M 738.39072,763.0729 q -7.99247,0 -24.62545,-1.29607 -16.20095,-1.18807 -24.62544,-1.08007 h -7.66846 q 0.32402,14.90488 2.91618,48.38685 2.37614,31.21383 2.37614,48.49485 0,3.78022 0.75604,11.44867 0.75604,7.66845 0.75604,11.55668 0,7.34443 -2.37614,12.63675 -3.02417,7.12842 -9.39655,7.12842 -4.32025,0 -7.77645,-3.02418 -3.45621,-3.02418 -3.45621,-7.77646 0,-1.6201 0.54003,-4.86029 0.54004,-3.24019 0.54004,-4.86028 0,-5.29231 -0.75605,-15.87694 -0.64804,-10.58462 -0.64804,-15.98493 0,-15.44491 -2.48414,-43.41856 -2.59216,-30.24178 -2.91617,-43.41855 l -9.82858,0.10801 q -23.65339,0 -37.15419,-3.45621 -8.74851,-2.26813 -8.74851,-10.69263 0,-4.42826 2.80816,-7.77645 3.24019,-3.78023 8.31649,-3.45621 3.78022,0.21602 17.28102,1.94412 10.80063,1.29607 17.49703,1.29607 6.48038,0 19.65715,-0.21601 13.17678,-0.32402 19.65716,-0.32402 8.31649,0 24.62545,1.18807 16.41696,1.18807 24.73345,1.18807 4.64427,0 7.77646,3.24019 3.13218,3.13219 3.13218,7.88447 0,4.64427 -3.13218,7.88446 -3.13219,3.13218 -7.77646,3.13218 z m 38.8823,-0.32402 q -5.18431,0 -8.96453,-3.67221 -3.78022,-3.67222 -3.78022,-8.85652 0,-5.18431 3.78022,-8.85652 3.78022,-3.67222 8.96453,-3.67222 5.1843,0 8.85652,3.67222 3.78022,3.67221 3.78022,8.85652 0,5.1843 -3.78022,8.85652 -3.67222,3.67221 -8.85652,3.67221 z m 4.86028,87.70116 q 0,6.48038 0.32402,19.44114 0.43203,12.85276 0.43203,19.33314 0,4.75228 -2.91618,7.77646 -2.91617,3.02418 -7.66845,3.02418 -4.64427,0 -7.66845,-3.02418 -2.91617,-3.02418 -2.91617,-7.77646 0,-6.48038 -0.43202,-19.33314 -0.32402,-12.96076 -0.32402,-19.44114 0,-10.1526 1.08006,-25.27348 1.08006,-15.2289 1.08006,-25.3815 0,-4.86028 2.91618,-7.88446 3.02417,-3.02418 7.66845,-3.02418 4.64427,0 7.56044,3.02418 3.02418,3.02418 3.02418,7.88446 0,10.1526 -1.08006,25.3815 -1.08007,15.12088 -1.08007,25.27348 z m 117.18688,44.71463 q -24.30143,9.50456 -62.10365,9.50456 -4.64427,0 -8.85652,-4.42826 -4.10424,-4.32026 -4.10424,-8.96453 v -31.42985 q 0,-15.4449 1.94411,-44.06659 2.16013,-30.88981 2.37614,-44.71463 -0.108,-9.93658 1.18807,-29.59374 0.75605,-5.40031 3.56421,-7.12842 14.68887,-4.53626 33.37397,-4.53626 19.00911,0 36.50614,12.96076 20.19719,14.90488 20.19719,36.83017 0,27.75763 -21.60127,43.74257 16.20095,6.9124 24.19342,15.3369 8.10048,8.42449 8.10048,18.36108 0,13.06877 -14.14883,25.27348 -9.82858,8.64051 -20.62922,12.85276 z M 866.70227,751.84024 q -11.7727,0 -16.52498,0.75605 l -0.21601,18.90111 -2.16013,41.79846 q 15.33691,1.29607 16.41697,1.18807 16.30896,-1.29608 26.67757,-10.1526 11.12465,-9.61257 11.12465,-24.73345 0,-10.26061 -11.34066,-19.00912 -11.34067,-8.74852 -23.97741,-8.74852 z m 12.09671,86.51309 -11.44868,-1.83611 q -1.40408,0 -4.32025,0.21601 -2.80817,0.10801 -4.32025,0.10801 -5.83235,0 -12.42074,-0.97206 -0.64803,13.6088 -0.64803,24.30143 v 22.35732 q 28.29766,-0.97206 46.11871,-7.99247 7.56044,-2.91617 14.47285,-9.07254 6.58839,-5.61633 6.58839,-8.42449 0,-5.0763 -13.82482,-11.44867 -10.36861,-4.86029 -20.19718,-7.23643 z m 163.62962,68.26001 q -2.0521,0 -7.4525,-4.75228 -4.8602,-4.42826 -7.2364,-7.88446 -10.3686,5.61633 -18.2531,8.4245 -7.8844,2.91617 -13.17672,2.91617 -25.27349,0 -36.83017,-14.25684 -10.90864,-13.39279 -10.90864,-41.04241 0,-26.13754 17.92905,-44.71463 18.03706,-18.5771 42.98648,-18.5771 9.3966,0 21.0613,4.86029 14.6889,6.04836 14.6889,14.58086 0,2.91617 -2.1602,5.1843 -1.08,4.10424 -1.7281,13.5008 -0.54,9.39655 -0.648,24.08541 -0.108,13.39279 1.8361,21.16925 1.0801,4.75228 6.8044,19.00911 0.756,1.94412 2.4841,5.72434 l 0.6481,1.83611 q 0,4.32025 -3.0242,7.12842 -3.0242,2.80816 -7.0204,2.80816 z m -22.4653,-75.06441 q 0,-4.64427 0.54,-10.04459 0.648,-5.50832 1.8361,-11.66469 -3.9962,-2.05212 -6.9124,-3.02417 -2.8082,-0.97206 -4.5363,-0.97206 -16.74095,0 -28.94567,13.7168 -12.09671,13.6088 -12.09671,31.42985 0,17.71304 6.26437,26.56957 6.26437,8.85652 18.7931,8.85652 10.36861,0 17.60501,-3.78023 3.8883,-2.05212 10.9087,-8.20848 -3.4562,-28.62168 -3.4562,-42.87852 z m 157.9053,69.12406 q -4.1043,0 -7.6685,-3.4562 -35.7501,-35.31808 -79.4927,-47.52279 l 0.8641,21.16924 0.54,21.27725 q 0,4.75228 -3.1322,7.88447 -3.0241,3.24019 -7.6684,3.24019 -4.6443,0 -7.7765,-3.24019 -3.0241,-3.13219 -3.0241,-7.88447 0,-8.5325 -0.8641,-25.38149 -0.756,-16.957 -0.756,-25.4895 0,-9.93658 2.1601,-29.59374 2.1601,-19.65715 2.1601,-29.48573 0,-5.50833 -1.08,-16.30896 -0.9721,-10.80064 -0.9721,-16.30896 0,-6.15636 3.4562,-10.80064 4.1042,-5.72433 11.3407,-5.1843 l 26.0295,2.05212 q 14.7969,1.83611 24.9495,7.23643 43.7425,23.22136 43.7425,56.70333 0,16.41697 -14.9048,29.05371 -11.9887,10.1526 -29.9178,15.44491 33.59,18.03706 50.223,38.01823 2.8081,3.45621 2.8081,7.34443 0,4.53627 -3.3482,7.88447 -3.2402,3.34819 -7.6684,3.34819 z m -68.8001,-142.78439 -15.9849,-1.29608 1.08,13.06877 q 0.7561,7.99247 0.7561,13.06877 0,8.64051 -1.4041,21.49326 l -2.2681,21.49327 q 1.5121,0 4.6442,0.108 3.2402,0.10801 4.8603,0.10801 27.5417,0 41.2585,-7.34443 6.0483,-3.3482 11.2326,-8.74852 5.7244,-6.04835 5.7244,-10.2606 0,-15.01288 -17.065,-27.97364 -15.661,-11.8807 -32.834,-13.71681 z m 205.4281,20.4132 q -6.9124,0 -10.3686,-8.10048 -3.0242,-6.9124 -5.6164,-8.42449 -2.2681,-1.18807 -11.2326,-1.18807 -15.6609,0 -34.7781,23.97741 -25.9215,32.18589 -25.9215,61.02359 0,13.93281 8.9645,23.97741 9.1806,10.3686 22.1413,10.3686 11.1247,0 22.3574,-5.72433 6.2643,-3.24019 19.2251,-12.74475 6.1563,-4.53627 9.2885,-4.53627 4.6443,0 7.7765,3.56421 3.1322,3.4562 3.1322,7.77646 0,4.86028 -4.1043,8.5325 -28.5136,25.27349 -57.6754,25.27349 -22.3573,0 -37.8022,-17.17301 -14.9049,-16.63298 -14.9049,-39.31431 0,-36.61416 30.6738,-75.06442 25.5975,-32.07788 51.6271,-32.07788 5.2923,0 9.5045,0.54003 4.2123,0.43202 7.4525,1.51209 3.7802,-5.50833 9.8286,-5.50833 7.4524,0 9.3965,9.82858 1.7281,8.74851 1.7281,21.49326 0,4.42826 -2.3761,7.77646 -2.9162,4.21225 -8.3165,4.21225 z"
           id="text4359"
           aria-label="STiBaRC" /></g><g
         transform="matrix(0.13962615,0,0,0.13962615,699.40319,562.0994)"
         id="g4657"><g
           transform="matrix(-10.769549,0,0,-10.769549,362.60632,1347.3176)"
           id="g20"><path
             id="path22"
             style="fill:#ffcc4d;fill-opacity:1;fill-rule:nonzero;stroke:none"
             d="m 0,0 c 0,-9.941 -8.059,-18 -18,-18 -9.941,0 -18,8.059 -18,18 0,9.941 8.059,18 18,18 C -8.059,18 0,9.941 0,0" /></g><g
           transform="matrix(-10.769549,0,0,-10.769549,520.08302,1415.3268)"
           id="g24"><path
             id="path26"
             style="fill:#664500;fill-opacity:1;fill-rule:nonzero;stroke:none"
             d="m 0,0 c -0.153,0.132 -0.368,0.159 -0.551,0.069 l -4,-2 c -1.871,-0.935 -6.727,-0.947 -6.776,-0.947 h -10e-4 c -0.276,0 -0.499,-0.224 -0.499,-0.5 0,-0.184 0.1,-0.347 0.25,-0.433 v 0 h 10e-4 v 0 l 0.001,-10e-4 c 0.071,-0.041 0.153,-0.064 0.24,-0.066 h 0.008 7 c 2.658,0 4.089,2.186 4.474,3.342 C 0.211,-0.344 0.153,-0.133 0,0" /></g><g
           transform="matrix(-10.607038,1.8638459,-1.8638459,-10.607038,430.52421,1339.2592)"
           id="g28"><path
             id="path30"
             style="fill:#664500;fill-opacity:1;fill-rule:nonzero;stroke:none"
             d="M 0,0 C -0.305,0 -0.605,0.138 -0.801,0.4 -3.441,3.921 -6.862,3.999 -7.007,4 -7.557,4.006 -8.001,4.456 -7.998,5.005 -7.995,5.556 -7.551,6 -7.001,6 -6.817,6 -2.464,5.95 0.799,1.6 1.131,1.158 1.041,0.531 0.599,0.2 0.419,0.065 0.209,0 0,0" /></g><g
           transform="matrix(-10.607038,1.8638459,-1.8638459,-10.607038,706.32842,1290.7955)"
           id="g32"><path
             id="path34"
             style="fill:#664500;fill-opacity:1;fill-rule:nonzero;stroke:none"
             d="m 0,0 c -0.208,0 -0.419,0.065 -0.599,0.2 -0.442,0.331 -0.531,0.958 -0.2,1.4 3.262,4.35 7.616,4.4 7.8,4.4 0.552,0 1,-0.448 1,-1 C 8.001,4.449 7.556,4.002 7.005,4 6.85,3.998 3.437,3.914 0.801,0.4 0.604,0.138 0.304,0 0,0" /></g><g
           transform="matrix(-10.607038,1.8638459,-1.8638459,-10.607038,593.33579,1325.9204)"
           id="g36"><path
             id="path38"
             style="fill:#664500;fill-opacity:1;fill-rule:nonzero;stroke:none"
             d="m 0,0 c 0.023,0.052 0.059,0.096 0.073,0.154 0.134,0.536 -0.192,1.079 -0.727,1.213 -0.181,0.045 -4.468,1.08 -7.798,-1.138 -0.459,-0.307 -0.583,-0.928 -0.277,-1.387 0.193,-0.289 0.51,-0.446 0.833,-0.446 0.19,0 0.383,0.055 0.554,0.168 1.092,0.73 2.362,0.995 3.468,1.062 -0.009,-0.077 -0.023,-0.151 -0.023,-0.23 0,-1.104 0.896,-2 2,-2 1.105,0 2,0.896 2,2 C 0.103,-0.392 0.061,-0.191 0,0" /></g><g
           transform="matrix(-10.607038,1.8638459,-1.8638459,-10.607038,466.05383,1348.2697)"
           id="g40"><path
             id="path42"
             style="fill:#664500;fill-opacity:1;fill-rule:nonzero;stroke:none"
             d="M 0,0 C 0.023,0.052 0.059,0.095 0.073,0.152 0.208,0.689 -0.118,1.231 -0.654,1.365 -0.834,1.41 -5.12,2.445 -8.451,0.227 -8.911,-0.079 -9.035,-0.7 -8.729,-1.16 c 0.193,-0.289 0.51,-0.445 0.834,-0.445 0.19,0 0.382,0.055 0.553,0.168 1.092,0.729 2.362,0.994 3.469,1.06 -0.009,-0.076 -0.023,-0.15 -0.023,-0.228 0,-1.104 0.895,-2 2,-2 1.104,0 2,0.896 2,2 C 0.104,-0.393 0.062,-0.192 0,0" /></g><path
           d="m 440.43849,1407.8578 c 0,0 7.58909,-12.5184 2.19196,-21.5403 -5.53774,-9.3365 -13.58927,-5.2411 -13.58927,-5.2411 0,0 7.18122,-9.2165 -0.12251,-19.8931 -6.88169,-10.0522 -16.98191,-5.1641 -16.98191,-5.1641 0,0 5.20946,-10.3062 -2.59435,-20.13 -6.57671,-8.2662 -18.55762,-4.7499 -18.55762,-4.7499 0,0 33.22071,-46.3818 36.66713,-51.0982 3.43097,-4.7176 6.58232,-14.6296 -3.26563,-21.8186 -9.83849,-7.2115 -18.07125,-0.6637 -21.36197,3.8457 -3.28353,4.5177 -44.94544,61.5369 -59.30665,81.2183 l -27.02742,108.0128 c 32.59026,23.8521 78.71813,17.5125 102.56294,-15.086 1.27343,-1.7085 21.38536,-28.3555 21.38536,-28.3555"
           style="fill:#f4900c;fill-opacity:1;fill-rule:nonzero;stroke:none"
           id="path46" /></g></g></g></svg>
